{"accessors" : [{"bufferView" : 0, "byteOffset" : 0, "componentType" : 5123, "count" : 1242, "type" : "SCALAR", "max" : [1241], "min" : [0]}, {"bufferView" : 1, "byteOffset" : 0, "componentType" : 5126, "count" : 1242, "type" : "VEC3", "max" : [3.8203461170196533, 32.07881546020508, 5.13201904296875], "min" : [-2.8946619033813477, 0, -5.13201904296875], "name" : "POSITION"}, {"bufferView" : 1, "byteOffset" : 12, "componentType" : 5126, "count" : 1242, "type" : "VEC3", "max" : [1.0000044107437134, 1.0000044107437134, 1.0000044107437134], "min" : [-1.0000044107437134, -1.0000044107437134, -1.0000044107437134], "name" : "NORMAL"}, {"bufferView" : 1, "byteOffset" : 24, "componentType" : 5126, "count" : 1242, "type" : "VEC2", "max" : [0.9927650094032288, 0.9806219935417175], "min" : [0.005332000087946653, 0.028192000463604927], "name" : "TEXCOORD_0"}], "asset" : {"generator" : "Aspose.3D 21.9", "version" : "2.0"}, "buffers" : [{"uri" : "data:application/octet-stream;base64,", "byteLength" : 42236}], "bufferViews" : [{"buffer" : 0, "byteOffset" : 0, "byteLength" : 2484, "target" : 34963}, {"buffer" : 0, "byteOffset" : 2488, "byteLength" : 39744, "byteStride" : 32, "target" : 34962}], "images" : [{"uri" : "data:image/png;base64,"}], "materials" : [{"name" : "Skyscraper_mat2", "pbrMetallicRoughness" : {"baseColorFactor" : [1, 1, 1, 1], "baseColorTexture" : {"index" : 0, "texCoord" : 0}, "metallicFactor" : 0, "roughnessFactor" : 1}, "emissiveFactor" : [0, 0, 0], "alphaMode" : "OPAQUE", "doubleSided" : false}], "meshes" : [{"primitives" : [{"attributes" : {"POSITION" : 1, "NORMAL" : 2, "TEXCOORD_0" : 3}, "indices" : 0, "material" : 0, "mode" : 4}]}], "nodes" : [{"mesh" : 0, "name" : "Skyscraper_mesh"}], "samplers" : [{"magFilter" : 9729, "minFilter" : 9986, "wrapS" : 10497, "wrapT" : 10497}], "scene" : 0, "scenes" : [{"nodes" : [0]}], "textures" : [{"sampler" : 0, "source" : 0}]}